<?xml version="1.0" standalone="no"?>
<!DOCTYPE svg PUBLIC "-//W3C//DTD SVG 20010904//EN"
 "http://www.w3.org/TR/2001/REC-SVG-20010904/DTD/svg10.dtd">
<svg version="1.0" xmlns="http://www.w3.org/2000/svg"
 width="510.000000pt" height="509.000000pt" viewBox="0 0 510.000000 509.000000"
 preserveAspectRatio="xMidYMid meet">

<g transform="translate(0.000000,509.000000) scale(0.100000,-0.100000)"
fill="#000000" stroke="none">
<path d="M0 4506 c0 -520 2 -585 16 -590 8 -3 13 -10 9 -15 -3 -5 -1 -12 5
-16 5 -3 10 1 10 9 0 18 21 21 48 7 19 -11 51 -23 69 -27 7 -1 25 -11 40 -21
15 -10 59 -34 96 -53 53 -27 67 -38 64 -52 -4 -13 1 -18 14 -18 11 0 22 -7 25
-15 11 -26 37 -18 32 10 -3 14 -1 25 3 25 5 0 9 -5 9 -11 0 -6 7 -8 16 -5 10
4 25 -1 37 -11 19 -17 19 -17 12 5 l-7 23 26 -22 c14 -12 26 -29 26 -37 0 -10
7 -12 26 -8 15 4 32 2 40 -5 28 -23 23 -2 -8 35 -26 32 -28 36 -10 27 12 -6
22 -8 22 -3 0 17 -30 34 -50 29 -13 -3 -18 -1 -13 6 4 6 0 8 -10 4 -9 -3 -18
-1 -21 6 -3 8 -5 8 -5 -2 -1 -11 -4 -11 -16 -1 -8 6 -49 16 -92 21 -43 6 -80
13 -83 17 -3 4 -14 8 -25 10 -11 2 -45 18 -75 35 -30 18 -68 39 -85 47 -38 19
-46 30 -35 51 7 11 19 15 40 13 46 -5 83 12 75 36 -5 15 0 21 21 26 17 4 29 3
31 -3 2 -6 12 -9 23 -6 14 4 18 0 16 -14 -2 -10 -1 -12 1 -5 4 10 15 12 40 7
23 -4 38 -2 43 5 6 9 13 9 30 0 29 -15 50 1 30 25 -16 20 -7 29 17 17 10 -5
23 -7 30 -5 6 2 31 -5 55 -16 48 -22 133 -51 150 -51 7 0 7 4 1 13 -20 24 -24
65 -7 71 12 5 13 9 2 28 -7 13 -11 29 -10 35 2 7 -13 21 -33 30 -36 17 -45 29
-22 30 6 1 42 4 80 8 48 5 72 4 82 -5 12 -10 15 -9 15 4 0 9 5 16 10 16 6 0
10 -9 10 -21 0 -15 4 -19 16 -15 10 4 22 -1 29 -11 11 -15 15 -15 29 -4 13 11
19 11 31 1 13 -10 19 -9 37 6 21 19 21 19 16 -3 -4 -13 -3 -23 2 -23 4 0 10
10 13 21 4 15 11 20 21 16 9 -4 16 -3 16 2 0 5 11 9 25 9 24 0 24 -1 8 -37 -8
-20 -22 -63 -30 -96 -8 -33 -19 -64 -24 -70 -5 -5 -9 -16 -9 -25 0 -8 -9 -32
-20 -53 -11 -20 -20 -51 -20 -67 0 -21 -10 -40 -29 -59 -16 -16 -37 -43 -46
-61 -9 -17 -44 -60 -77 -95 -68 -72 -196 -238 -209 -273 -5 -13 -22 -42 -38
-65 -15 -23 -32 -53 -36 -66 -4 -14 -17 -43 -29 -66 -13 -23 -33 -78 -46 -124
-21 -71 -27 -81 -44 -79 -14 2 -20 9 -18 21 2 10 -3 17 -12 17 -10 0 -13 6 -9
17 5 12 2 15 -10 10 -12 -5 -17 -1 -17 12 0 12 -9 20 -24 23 -17 4 -23 1 -19
-9 3 -7 9 -13 14 -13 5 0 9 -7 9 -16 0 -9 -16 4 -37 30 -21 24 -43 43 -50 41
-28 -9 -20 14 10 29 19 9 25 16 15 16 -10 0 -22 9 -28 19 -5 11 -19 23 -30 26
-11 4 -18 10 -16 14 6 9 -41 61 -54 61 -14 0 -80 66 -80 80 0 7 -6 10 -14 7
-8 -3 -16 2 -19 14 -3 10 -12 19 -21 19 -13 0 -16 -14 -16 -86 0 -54 4 -83 10
-79 6 3 10 -1 10 -10 0 -9 -4 -13 -10 -10 -6 4 -10 -11 -10 -38 0 -31 5 -47
15 -51 17 -6 20 -26 4 -26 -5 0 -7 5 -3 12 4 7 3 8 -4 4 -8 -5 -12 -148 -12
-514 l0 -508 22 -1 c12 -1 25 2 29 8 3 6 11 3 19 -6 12 -14 12 -16 -1 -15 -7
1 -26 2 -41 1 -24 -1 -28 -5 -28 -32 0 -20 4 -29 12 -27 12 4 38 -14 38 -26 0
-3 -11 -6 -25 -6 l-25 0 0 -375 0 -375 59 0 c60 0 86 -14 60 -31 -8 -5 -32 -9
-54 -8 -22 0 -46 0 -52 0 -10 -1 -13 -126 -13 -591 l0 -590 2276 0 2276 0 -3
170 c-4 155 -6 170 -24 185 -17 14 -43 15 -185 10 -91 -4 -280 -11 -420 -16
-140 -4 -271 -10 -291 -13 -20 -2 -51 0 -70 4 -19 4 -26 8 -17 9 11 1 15 6 12
16 -4 9 -11 15 -18 14 -6 -1 -31 -1 -55 0 -34 1 -42 4 -37 16 3 8 1 15 -3 15
-5 0 -11 -7 -15 -15 -3 -8 -10 -15 -15 -15 -6 0 -8 7 -5 15 4 10 -2 18 -17 23
l-23 9 22 12 c12 7 28 9 34 5 6 -4 31 -9 56 -11 43 -4 44 -3 37 19 -4 13 -8
34 -9 48 -1 23 2 25 34 22 62 -5 130 -24 124 -34 -4 -6 0 -14 7 -19 7 -4 10
-11 6 -16 -5 -4 -12 -1 -16 6 -11 17 -32 5 -24 -14 3 -8 0 -15 -6 -15 -6 0
-11 -4 -11 -9 0 -10 55 -9 66 2 10 10 197 -3 209 -15 6 -6 -10 -9 -45 -7 -70
5 -95 -9 -51 -27 35 -15 90 -11 101 7 7 10 39 16 93 18 9 1 17 8 17 16 0 12
-10 14 -42 11 -65 -7 -138 4 -138 20 0 17 24 18 48 3 15 -9 24 -8 46 6 l27 18
-24 21 c-26 22 -46 55 -51 84 -15 81 -20 100 -33 127 -16 30 -49 60 -68 60
-14 0 -34 27 -35 45 0 8 -17 32 -37 53 -23 25 -32 41 -25 46 14 8 -74 95 -106
105 -13 4 -33 24 -46 44 -26 41 -142 184 -178 220 -35 35 -101 57 -128 42
l-21 -11 22 -20 c12 -10 19 -22 15 -26 -4 -4 -68 -9 -142 -10 l-134 -2 0 71 0
71 78 -7 c134 -12 163 -13 150 -4 -9 5 -3 8 17 9 28 2 -82 15 -190 22 -27 2
-50 8 -50 13 0 5 11 35 24 67 l23 57 137 -5 c169 -6 203 7 62 25 -55 7 -98 16
-96 20 2 4 24 4 47 1 24 -3 61 -4 83 -1 59 8 21 17 -103 26 l-103 7 -24 47
c-13 27 -35 57 -49 68 -14 10 -28 31 -32 46 -5 20 -21 34 -68 57 -33 17 -79
48 -101 69 -40 37 -155 97 -155 80 0 -5 5 -12 10 -15 6 -3 10 -11 10 -18 0 -6
-17 5 -37 25 -21 19 -46 38 -56 42 -12 4 -17 14 -15 28 3 20 8 23 43 19 22 -1
58 -12 80 -24 37 -19 61 -21 311 -24 293 -3 351 2 244 25 -36 7 -81 15 -100
17 -34 4 -34 4 -5 -4 25 -7 19 -9 -32 -10 -43 -1 -62 3 -60 11 4 20 -73 29
-216 26 -75 -2 -137 0 -137 4 0 4 -13 3 -29 -2 -23 -6 -33 -4 -46 11 -10 10
-21 17 -26 16 -12 -3 -44 58 -56 108 -6 22 -14 49 -19 60 -7 19 -7 19 9 3 13
-12 30 -15 74 -13 32 2 164 7 293 10 129 4 251 8 270 10 19 2 71 6 115 10 102
7 145 15 145 26 0 4 -46 6 -102 4 -620 -26 -781 -31 -797 -21 -5 4 -13 1 -16
-5 -4 -5 -13 -8 -20 -5 -9 3 -15 -4 -17 -21 -2 -16 -10 -27 -21 -29 -15 -2
-17 2 -12 26 5 24 2 30 -35 49 -26 13 -59 21 -92 21 -49 0 -51 1 -35 17 15 15
23 16 74 5 79 -16 94 1 16 19 -58 13 -119 11 -161 -6 -53 -23 -76 -13 -118 53
-20 31 -46 70 -57 87 -20 28 -66 108 -124 215 -14 25 -36 59 -49 77 -13 17
-24 35 -24 38 0 4 -15 32 -34 63 -25 41 -37 74 -41 117 -4 33 -11 76 -16 95
-7 29 -5 40 16 71 13 21 33 40 45 44 11 3 20 10 20 15 0 5 28 28 63 51 34 23
72 51 84 62 12 11 31 25 41 31 11 6 45 30 76 54 l56 43 -21 29 c-12 16 -28 31
-34 34 -13 5 -11 21 21 167 8 37 14 74 14 83 0 9 7 16 15 16 11 0 15 -13 16
-52 0 -29 4 -71 8 -93 l8 -40 7 50 c4 28 12 70 17 95 8 43 8 42 4 -15 l-4 -60
16 35 c8 19 30 94 48 165 19 72 46 173 60 225 14 52 29 122 31 155 6 66 14 87
14 37 0 -18 5 -32 10 -32 6 0 10 -7 10 -15 0 -8 -4 -15 -10 -15 -5 0 -10 -5
-10 -10 0 -16 233 0 245 17 8 10 30 14 78 12 67 -3 324 -3 405 0 30 1 42 6 42
16 0 8 7 15 15 15 8 0 15 -4 15 -10 0 -5 19 -10 42 -10 23 0 38 3 34 7 -4 5
37 13 92 20 60 7 111 18 126 28 18 12 26 14 26 5 0 -15 79 -7 113 12 22 12 22
12 -8 19 -16 4 -62 7 -102 8 -39 0 -75 6 -78 11 -4 6 -13 7 -22 2 -8 -5 -38
-5 -66 0 -91 14 -245 19 -252 8 -3 -6 -11 -8 -16 -4 -6 4 -6 11 2 20 7 9 8 14
1 14 -6 0 -12 -5 -14 -11 -2 -6 -45 -12 -104 -15 l-101 -4 3 58 c2 31 3 60 4
65 0 4 9 2 20 -5 16 -10 24 -10 40 0 18 11 20 10 20 -8 0 -17 7 -20 40 -20 34
0 40 -3 40 -22 0 -28 8 -20 12 14 6 42 18 46 18 6 0 -31 3 -35 20 -31 11 3 32
19 46 35 29 35 39 33 20 -3 -13 -26 -11 -49 6 -49 6 0 5 7 -3 16 -12 15 -11
16 11 10 14 -4 20 -4 14 1 -13 9 -13 67 -1 79 4 4 7 -9 7 -29 0 -26 4 -37 15
-37 18 0 19 12 3 29 -11 10 -10 11 3 6 17 -6 28 17 30 65 0 14 3 19 6 10 2 -8
7 -22 9 -30 5 -13 6 -13 14 0 8 13 10 13 10 -1 0 -13 8 -15 57 -8 34 5 60 14
65 23 5 9 15 16 23 16 7 0 15 5 17 12 3 9 6 9 12 0 4 -7 2 -12 -3 -12 -6 0
-11 -7 -11 -15 0 -11 11 -15 40 -15 37 0 40 2 40 29 0 17 -8 34 -19 42 -25 18
-38 59 -19 59 19 0 38 -21 38 -42 0 -10 4 -18 9 -18 21 0 41 13 41 26 0 8 5
14 11 14 8 0 7 5 -2 16 -11 14 -11 18 4 29 9 7 17 25 17 41 0 20 7 32 22 39
12 6 23 17 26 25 3 13 2 13 -7 0 -9 -13 -11 -13 -11 2 0 9 6 19 13 21 7 3 4 6
-7 6 -15 1 -16 4 -6 16 7 8 16 13 20 10 16 -10 19 12 5 31 -19 25 -19 48 0 64
8 7 15 20 15 30 0 10 9 20 20 23 25 7 17 33 -13 41 -12 3 -826 6 -1809 6
l-1788 0 0 -584z m3333 527 c-7 -2 -19 -2 -25 0 -7 3 -2 5 12 5 14 0 19 -2 13
-5z m-1333 -13 c0 -5 -2 -10 -4 -10 -3 0 -8 5 -11 10 -3 6 -1 10 4 10 6 0 11
-4 11 -10z m1417 4 c-3 -3 -12 -4 -19 -1 -8 3 -5 6 6 6 11 1 17 -2 13 -5z
m-1362 -35 c11 -17 2 -18 -19 -3 -17 12 -17 14 -4 14 9 0 20 -5 23 -11z m1399
-54 c5 -22 4 -26 -4 -15 -5 8 -10 24 -10 34 0 26 6 18 14 -19z m106 -7 c0 -7
-11 -18 -25 -25 -30 -13 -31 -10 -7 16 20 23 32 26 32 9z m-100 -39 c0 -6 9
-9 20 -6 11 3 23 1 26 -4 3 -5 -10 -9 -29 -9 -23 0 -34 5 -34 15 0 8 4 15 9
15 4 0 8 -5 8 -11z m55 -39 c3 -5 2 -10 -4 -10 -5 0 -13 5 -16 10 -3 6 -2 10
4 10 5 0 13 -4 16 -10z m-55 -10 c0 -5 -4 -10 -10 -10 -5 0 -10 5 -10 10 0 6
5 10 10 10 6 0 10 -4 10 -10z m-400 -20 c0 -5 -4 -10 -10 -10 -5 0 -10 5 -10
10 0 6 5 10 10 10 6 0 10 -4 10 -10z m-1123 -81 c33 -11 71 -29 84 -39 12 -11
31 -20 41 -20 11 0 17 -4 13 -10 -7 -11 54 -45 75 -42 10 2 11 0 3 -5 -8 -6
-5 -15 9 -33 14 -16 22 -21 25 -12 3 6 14 11 26 11 18 -1 19 -2 4 -6 -19 -5
-17 -30 2 -25 6 1 11 -4 11 -11 0 -7 14 -29 31 -48 32 -35 49 -69 49 -96 0 -9
-12 3 -28 25 -15 23 -46 55 -69 72 -22 16 -63 51 -89 76 -27 25 -66 56 -86 70
-21 13 -38 28 -38 33 0 18 -130 61 -187 61 -40 0 -44 17 -5 22 34 4 52 1 129
-23z m1158 11 c3 -6 -1 -7 -9 -4 -18 7 -21 14 -7 14 6 0 13 -4 16 -10z m-178
-80 c2 -11 -2 -20 -7 -20 -6 0 -10 12 -10 27 0 29 12 24 17 -7z m253 -29 c0
-5 -9 -11 -20 -14 -22 -6 -28 8 -7 16 19 8 27 8 27 -2z m-320 -21 c0 -5 -4
-10 -10 -10 -5 0 -10 5 -10 10 0 6 5 10 10 10 6 0 10 -4 10 -10z m157 -22 c-3
-7 -5 -2 -5 12 0 14 2 19 5 13 2 -7 2 -19 0 -25z m219 14 c-10 -2 -22 0 -28 6
-6 6 0 7 19 4 21 -5 23 -7 9 -10z m-836 -12 c0 -5 -9 -10 -19 -10 -11 0 -23 5
-26 10 -4 6 5 10 19 10 14 0 26 -4 26 -10z m163 3 c-7 -2 -19 -2 -25 0 -7 3
-2 5 12 5 14 0 19 -2 13 -5z m446 -43 c1 -13 0 -13 -9 0 -5 8 -9 24 -9 35 l0
20 9 -20 c5 -11 9 -27 9 -35z m118 28 c-3 -8 -6 -5 -6 6 -1 11 2 17 5 13 3 -3
4 -12 1 -19z m20 -15 c-3 -10 -5 -4 -5 12 0 17 2 24 5 18 2 -7 2 -21 0 -30z
m-542 -31 c-4 -23 -3 -32 5 -27 5 3 8 11 5 16 -4 5 -2 9 4 9 11 0 35 -39 29
-46 -2 -2 -20 -1 -39 2 -35 6 -36 7 -34 53 3 58 2 56 21 40 11 -9 14 -22 9
-47z m-132 41 c-13 -2 -33 -2 -45 0 -13 2 -3 4 22 4 25 0 35 -2 23 -4z m202
-32 c8 -16 12 -31 8 -34 -5 -6 -43 55 -43 69 0 12 21 -9 35 -35z m-1795 19 c0
-5 -4 -10 -10 -10 -5 0 -10 5 -10 10 0 6 5 10 10 10 6 0 10 -4 10 -10z m2096
-25 c-6 -16 -46 -21 -46 -6 0 5 9 13 20 16 11 3 20 12 21 18 0 8 2 8 6 -1 3
-7 2 -19 -1 -27z m-696 15 c0 -5 -4 -10 -10 -10 -5 0 -10 5 -10 10 0 6 5 10
10 10 6 0 10 -4 10 -10z m248 -22 c-3 -7 -12 -13 -21 -12 -9 0 -38 2 -64 4
l-48 3 50 7 c80 11 87 11 83 -2z m-243 -8 c3 -5 -1 -10 -10 -10 -9 0 -13 5
-10 10 3 6 8 10 10 10 2 0 7 -4 10 -10z m419 -35 c-4 -8 -8 -15 -10 -15 -2 0
-4 7 -4 15 0 8 4 15 10 15 5 0 7 -7 4 -15z m67 -25 c5 0 9 9 9 20 0 11 5 20
10 20 6 0 10 -9 10 -20 0 -11 -4 -20 -10 -20 -5 0 -10 -11 -10 -25 0 -14 -4
-25 -10 -25 -5 0 -10 10 -10 23 0 12 -4 29 -9 37 -6 8 -7 19 -3 25 4 5 8 0 10
-12 2 -13 8 -23 13 -23z m-1576 20 c3 -5 2 -10 -4 -10 -5 0 -13 5 -16 10 -3 6
-2 10 4 10 5 0 13 -4 16 -10z m1132 -42 c-3 -8 -6 -5 -6 6 -1 11 2 17 5 13 3
-3 4 -12 1 -19z m-1337 -148 c0 -5 -4 -10 -10 -10 -5 0 -10 5 -10 10 0 6 5 10
10 10 6 0 10 -4 10 -10z m138 -62 c-6 -18 -28 -21 -28 -4 0 9 7 16 16 16 9 0
14 -5 12 -12z m1129 -20 c-3 -8 -6 -5 -6 6 -1 11 2 17 5 13 3 -3 4 -12 1 -19z
m-987 -18 c0 -5 -4 -10 -10 -10 -5 0 -10 5 -10 10 0 6 5 10 10 10 6 0 10 -4
10 -10z m17 -22 c-3 -7 -5 -2 -5 12 0 14 2 19 5 13 2 -7 2 -19 0 -25z m24 -4
c-5 -16 -10 -21 -10 -12 -1 18 10 51 15 45 2 -1 -1 -16 -5 -33z m936 -6 c-3
-7 -5 -2 -5 12 0 14 2 19 5 13 2 -7 2 -19 0 -25z m-13 -65 c-8 -61 -41 -204
-49 -211 -3 -3 -7 -3 -10 0 -7 6 20 130 39 183 8 22 15 48 16 58 0 9 3 17 6
17 3 0 2 -21 -2 -47z m-1784 -28 c0 -17 -2 -18 -25 -9 -13 5 -14 8 -3 15 19
13 28 11 28 -6z m-220 -29 c0 -3 -4 -8 -10 -11 -5 -3 -10 -1 -10 4 0 6 5 11
10 11 6 0 10 -2 10 -4z m-145 -102 c-9 -7 -24 -10 -33 -6 -13 5 -10 8 13 13
17 4 26 7 22 8 -5 0 -5 6 -1 13 6 9 9 9 12 -2 3 -7 -3 -19 -13 -26z m1941
-351 c-1 0 -15 11 -33 25 -36 31 -36 64 1 104 l21 23 6 -75 c3 -41 6 -76 5
-77z m-1936 -396 c0 -4 4 -6 8 -3 5 3 9 -1 9 -9 0 -20 -4 -19 -33 10 -14 14
-22 30 -18 37 5 7 11 5 21 -7 7 -11 13 -23 13 -28z m80 -54 c0 -20 -16 -8 -23
17 -4 17 -3 19 9 9 8 -6 14 -18 14 -26z m-100 -63 c0 -5 -2 -10 -4 -10 -3 0
-8 5 -11 10 -3 6 -1 10 4 10 6 0 11 -4 11 -10z m-5 -39 c3 -5 2 -12 -3 -15 -5
-3 -9 1 -9 9 0 17 3 19 12 6z m64 -35 c6 -4 8 -13 4 -21 -3 -8 -1 -15 4 -15 6
0 19 -8 30 -17 84 -74 91 -82 91 -107 0 -14 -3 -26 -6 -26 -12 0 -52 44 -52
57 0 8 -15 20 -33 28 -39 16 -68 45 -46 45 9 1 7 6 -6 16 -14 11 -16 18 -7 21
16 6 15 20 -2 26 -10 4 -13 1 -9 -9 3 -7 0 -14 -7 -14 -6 0 -8 -4 -5 -10 10
-16 -11 -12 -25 5 -11 13 -10 14 4 9 11 -4 16 -1 16 10 0 9 6 23 13 30 10 12
13 11 19 -4 4 -10 11 -21 17 -24z m56 -16 c3 -5 1 -10 -4 -10 -6 0 -11 5 -11
10 0 6 2 10 4 10 3 0 8 -4 11 -10z m-99 -211 c19 -22 19 -22 -3 -8 -13 8 -23
17 -23 21 0 12 6 9 26 -13z m1658 -143 c30 -29 60 -64 66 -77 8 -15 -1 -9 -27
17 -22 21 -58 56 -82 77 -24 22 -48 57 -56 80 -22 64 -18 67 15 10 17 -29 55
-77 84 -107z m76 119 c0 -5 -5 -3 -10 5 -5 8 -10 20 -10 25 0 6 5 3 10 -5 5
-8 10 -19 10 -25z m-1465 -25 c3 -5 2 -10 -4 -10 -5 0 -13 5 -16 10 -3 6 -2
10 4 10 5 0 13 -4 16 -10z m1528 -305 c19 -27 8 -35 -13 -10 -7 8 -21 15 -31
15 -10 0 -21 5 -24 10 -4 6 6 10 22 10 18 -1 34 -9 46 -25z m110 -82 c-7 -2
-19 -2 -25 0 -7 3 -2 5 12 5 14 0 19 -2 13 -5z m407 -143 c9 -16 8 -20 -5 -20
-8 0 -15 9 -15 20 0 11 2 20 5 20 2 0 9 -9 15 -20z m-75 0 c-3 -5 -16 -15 -28
-21 -22 -12 -22 -12 -3 10 19 21 43 30 31 11z m565 -140 c0 -5 -15 -10 -32 -9
-28 0 -30 2 -13 9 28 12 45 12 45 0z m-183 -6 c-3 -3 -12 -4 -19 -1 -8 3 -5 6
6 6 11 1 17 -2 13 -5z m256 -1 c-7 -2 -19 -2 -25 0 -7 3 -2 5 12 5 14 0 19 -2
13 -5z m-2691 -34 c-5 -48 -7 -49 -101 -49 -62 0 -90 4 -94 13 -3 9 11 12 56
10 34 -1 68 2 76 7 9 5 12 10 7 10 -4 0 2 9 15 20 30 24 45 20 41 -11z m2791
-438 c-4 -3 -11 -10 -15 -15 -5 -5 -8 0 -8 12 0 15 4 20 16 15 9 -3 12 -9 7
-12z m-362 -260 c11 -10 34 -21 50 -25 20 -4 29 -11 29 -24 0 -17 -11 -20
-101 -27 -55 -4 -103 -5 -105 -2 -5 5 88 97 99 97 4 0 17 -8 28 -19z m619
-111 c0 -5 -4 -10 -10 -10 -5 0 -10 5 -10 10 0 6 5 10 10 10 6 0 10 -4 10 -10z
m40 -40 c0 -5 10 -9 22 -7 15 1 24 -5 29 -23 4 -14 7 -20 8 -14 1 6 8 11 17
11 18 0 47 -51 42 -74 -3 -15 -4 -15 -20 0 -9 9 -19 22 -21 29 -4 10 -8 9 -16
-2 -9 -12 -11 -13 -11 -1 0 8 -3 11 -6 8 -4 -3 -15 5 -26 18 -11 14 -26 25
-33 25 -8 0 -26 5 -42 11 l-28 12 25 7 c36 12 60 11 60 0z m-5 -70 c3 -5 -1
-10 -9 -10 -9 0 -16 5 -16 10 0 6 4 10 9 10 6 0 13 -4 16 -10z m162 -55 c8 -9
13 -18 11 -21 -9 -9 -38 8 -38 22 0 18 8 18 27 -1z m43 -47 c9 1 33 -16 55
-38 21 -22 34 -40 29 -40 -6 0 -23 13 -38 29 -19 20 -38 29 -57 29 -16 -1 -32
2 -35 5 -10 10 7 28 19 20 7 -4 19 -6 27 -5z m-108 -18 c2 -6 13 -12 26 -13
38 -2 24 -16 -15 -14 -21 1 -45 8 -53 16 -13 13 -13 14 3 8 9 -3 17 -2 17 3 0
13 17 13 22 0z m140 -47 c-10 -4 -10 -8 -1 -19 10 -12 9 -13 -5 -8 -24 9 -18
35 8 33 6 0 5 -3 -2 -6z m-165 -19 c-3 -3 -12 -4 -19 -1 -8 3 -5 6 6 6 11 1
17 -2 13 -5z m-767 -65 c80 -21 158 -39 173 -39 15 0 27 -4 27 -9 0 -10 -83
-4 -120 9 -53 18 -91 22 -106 10 -11 -10 -18 -9 -33 4 -11 10 -45 24 -77 33
-33 8 -70 21 -84 29 -24 14 -22 15 25 9 28 -4 115 -24 195 -46z m850 21 c0 -5
-5 -10 -11 -10 -5 0 -7 5 -4 10 3 6 8 10 11 10 2 0 4 -4 4 -10z m155 0 c3 -6
-1 -7 -9 -4 -18 7 -21 14 -7 14 6 0 13 -4 16 -10z m-291 -30 c31 -11 34 -30 6
-30 -10 0 -24 9 -30 20 -12 23 -11 24 24 10z m236 0 c0 -5 -7 -7 -15 -4 -8 4
-15 8 -15 10 0 2 7 4 15 4 8 0 15 -4 15 -10z m-170 -29 c0 -12 -20 -25 -27
-18 -7 7 6 27 18 27 5 0 9 -4 9 -9z m-289 -234 c-1 -12 -15 -9 -19 4 -3 6 1
10 8 8 6 -3 11 -8 11 -12z m192 -19 c24 -12 21 -20 -17 -45 -26 -17 -36 -19
-46 -10 -10 9 -14 9 -17 0 -3 -7 -11 -13 -19 -13 -9 0 -12 5 -9 10 3 6 -1 10
-9 10 -9 0 -16 7 -16 16 0 9 -10 24 -22 35 -23 19 -23 19 57 13 44 -4 88 -11
98 -16z m577 -62 c0 -3 -4 -8 -10 -11 -5 -3 -10 -1 -10 4 0 6 5 11 10 11 6 0
10 -2 10 -4z m-885 -17 c3 -4 24 -6 46 -4 23 2 51 0 63 -5 21 -8 21 -8 -4 -18
-59 -23 -70 -24 -70 -8 0 22 -20 20 -21 -1 -1 -17 -2 -17 -6 -1 -5 21 -35 30
-108 32 -30 0 -55 4 -55 8 0 10 149 7 155 -3z m100 -90 c11 -11 -5 -11 -57 -3
-21 4 -35 10 -33 15 6 9 76 0 90 -12z m60 1 c3 -5 -3 -10 -14 -10 -12 0 -21 5
-21 10 0 6 6 10 14 10 8 0 18 -4 21 -10z m-444 -13 c-1 -4 -3 -7 -6 -7 -40 0
-40 0 -25 10 16 10 32 9 31 -3z m354 -9 c27 -12 33 -27 13 -29 -7 -1 -2 -4 11
-8 47 -13 37 -32 -15 -31 -27 0 -56 0 -64 -1 -8 -1 -59 1 -112 5 -89 7 -98 6
-98 -9 0 -13 -5 -16 -22 -10 -13 3 -28 7 -35 7 -14 1 -13 40 2 50 6 4 29 8 53
8 23 0 42 5 42 10 0 6 11 10 24 10 14 0 28 -4 31 -10 7 -11 136 -14 134 -2 -4
25 1 26 36 10z m293 -20 c6 -6 12 -14 12 -19 0 -12 -37 -11 -45 1 -3 6 -15 10
-26 10 -11 0 -18 -4 -15 -9 3 -4 -20 -11 -52 -14 -44 -5 -59 -3 -65 8 -4 8
-20 16 -35 16 -23 1 -22 3 8 8 59 10 204 10 218 -1z m119 -14 c-3 -3 -12 -4
-19 -1 -8 3 -5 6 6 6 11 1 17 -2 13 -5z"/>
<path d="M3218 333 c7 -3 16 -2 19 1 4 3 -2 6 -13 5 -11 0 -14 -3 -6 -6z"/>
<path d="M4648 5083 c6 -2 18 -2 25 0 6 3 1 5 -13 5 -14 0 -19 -2 -12 -5z"/>
<path d="M4927 5062 c-5 -7 -13 -10 -18 -6 -6 3 -18 -1 -29 -11 -10 -9 -31
-20 -46 -25 -22 -6 -10 -8 50 -9 62 -1 76 2 68 12 -5 6 -12 21 -14 32 -2 14
-6 16 -11 7z"/>
<path d="M3581 4975 c1 -19 18 -51 18 -35 0 8 -4 22 -9 30 -5 8 -9 11 -9 5z"/>
<path d="M3600 4380 c0 -5 5 -10 10 -10 6 0 10 5 10 10 0 6 -4 10 -10 10 -5 0
-10 -4 -10 -10z"/>
<path d="M3608 4353 c7 -3 16 -2 19 1 4 3 -2 6 -13 5 -11 0 -14 -3 -6 -6z"/>
<path d="M2311 4224 c0 -11 3 -14 6 -6 3 7 2 16 -1 19 -3 4 -6 -2 -5 -13z"/>
<path d="M125 3949 c-12 -19 5 -23 22 -6 16 16 16 17 1 17 -9 0 -20 -5 -23
-11z"/>
<path d="M623 3928 c2 -7 12 -12 22 -10 17 3 17 2 2 -13 -11 -10 -25 -14 -37
-10 -12 4 -27 1 -35 -5 -8 -6 -18 -9 -24 -6 -14 9 -72 -27 -69 -43 2 -8 6 -14
11 -13 4 1 24 2 45 2 33 0 39 4 51 33 12 31 13 31 23 10 12 -24 58 -43 97 -39
24 2 44 26 22 26 -19 0 -51 43 -45 62 4 15 -1 18 -31 18 -25 0 -35 -4 -32 -12z"/>
<path d="M705 3920 c-3 -5 -3 -10 2 -10 4 -1 27 -5 51 -9 53 -10 55 2 3 17
-47 14 -48 15 -56 2z"/>
<path d="M342 3909 c-44 -9 -49 -16 -29 -36 15 -15 22 -16 49 -5 26 10 35 9
48 -3 9 -8 24 -15 33 -15 27 0 19 29 -10 41 -16 6 -35 14 -43 18 -8 4 -30 4
-48 0z"/>
<path d="M0 3798 c0 -75 2 -85 18 -83 9 0 23 4 30 9 7 4 15 1 18 -8 4 -11 14
-14 33 -10 34 9 53 24 47 39 -2 7 0 17 5 22 5 5 -5 9 -27 9 -20 0 -39 6 -45
15 -6 9 -9 10 -9 2 0 -7 -4 -13 -10 -13 -5 0 -10 9 -10 20 0 17 6 20 28 18 41
-4 34 22 -10 37 -21 7 -38 10 -38 8 0 -3 -7 0 -15 7 -13 11 -15 2 -15 -72z"/>
<path d="M460 3820 c0 -5 5 -10 10 -10 6 0 10 5 10 10 0 6 -4 10 -10 10 -5 0
-10 -4 -10 -10z"/>
<path d="M290 3105 c0 -8 7 -15 15 -15 8 0 15 4 15 9 0 5 -7 11 -15 15 -9 3
-15 0 -15 -9z"/>
<path d="M1940 2665 c0 -5 5 -17 10 -25 5 -8 10 -10 10 -5 0 6 -5 17 -10 25
-5 8 -10 11 -10 5z"/>
<path d="M1970 2665 c0 -5 5 -17 10 -25 5 -8 10 -10 10 -5 0 6 -5 17 -10 25
-5 8 -10 11 -10 5z"/>
<path d="M2490 2420 c57 -14 294 -23 346 -14 45 8 39 9 -66 15 -172 10 -323 9
-280 -1z"/>
<path d="M2930 2420 c-31 -4 -40 -8 -29 -14 15 -6 76 -6 374 5 l50 1 -40 9
c-46 9 -289 9 -355 -1z"/>
<path d="M2335 2410 c3 -5 8 -10 11 -10 2 0 4 5 4 10 0 6 -5 10 -11 10 -5 0
-7 -4 -4 -10z"/>
<path d="M2522 2200 c3 -13 24 -15 128 -12 69 1 142 5 163 8 78 12 31 19 -128
19 -142 0 -165 -2 -163 -15z"/>
<path d="M2863 2203 c10 -9 49 -12 250 -19 180 -6 260 2 162 17 -63 9 -421 11
-412 2z"/>
<path d="M3328 2143 c6 -2 18 -2 25 0 6 3 1 5 -13 5 -14 0 -19 -2 -12 -5z"/>
<path d="M3378 2013 c6 -2 18 -2 25 0 6 3 1 5 -13 5 -14 0 -19 -2 -12 -5z"/>
<path d="M2803 1935 c7 -5 16 -18 20 -27 7 -20 32 -24 42 -8 4 6 10 8 15 5 5
-3 41 2 80 11 73 18 99 13 65 -12 -14 -11 -40 -14 -88 -12 -49 2 -67 0 -67 -9
0 -16 215 -18 225 -3 4 6 -7 10 -24 10 -17 0 -31 5 -31 11 0 16 285 8 301 -8
6 -6 18 -9 25 -6 29 11 12 22 -45 29 -39 4 -62 12 -66 21 -4 13 -38 15 -235
12 -156 -3 -226 -7 -217 -14z"/>
<path d="M3120 1883 c0 -4 28 -9 62 -11 35 -2 61 -1 58 1 -10 9 -120 18 -120
10z"/>
<path d="M2963 1853 c9 -2 25 -2 35 0 9 3 1 5 -18 5 -19 0 -27 -2 -17 -5z"/>
<path d="M3298 1593 c7 -3 16 -2 19 1 4 3 -2 6 -13 5 -11 0 -14 -3 -6 -6z"/>
<path d="M5072 1578 c6 -18 28 -21 28 -4 0 9 -7 16 -16 16 -9 0 -14 -5 -12
-12z"/>
<path d="M3320 1550 c0 -5 5 -10 11 -10 5 0 7 5 4 10 -3 6 -8 10 -11 10 -2 0
-4 -4 -4 -10z"/>
<path d="M3095 1482 c-33 -2 -64 -8 -70 -13 -6 -6 29 -9 102 -8 74 1 113 5
116 13 5 12 -34 14 -148 8z"/>
<path d="M2995 1470 c-3 -5 -1 -10 4 -10 6 0 11 5 11 10 0 6 -2 10 -4 10 -3 0
-8 -4 -11 -10z"/>
<path d="M3300 1420 c-12 -8 -10 -10 10 -9 14 1 36 5 50 9 23 7 22 8 -10 9
-19 0 -42 -4 -50 -9z"/>
<path d="M3333 1353 c9 -2 23 -2 30 0 6 3 -1 5 -18 5 -16 0 -22 -2 -12 -5z"/>
<path d="M4145 470 c-3 -5 -15 -10 -26 -10 -27 0 -24 -20 4 -22 12 0 29 -2 37
-3 20 -2 40 14 40 31 0 16 -46 19 -55 4z"/>
<path d="M4096 415 c-3 -8 -2 -15 3 -15 5 0 14 7 21 15 10 12 10 15 -3 15 -8
0 -17 -7 -21 -15z"/>
<path d="M3690 400 c-11 -7 -5 -9 22 -8 21 1 35 5 32 10 -7 11 -35 10 -54 -2z"/>
<path d="M3618 379 c-15 -16 -15 -18 -1 -24 21 -7 33 5 24 25 -5 14 -8 14 -23
-1z"/>
</g>
</svg>
